<svg width="23" height="20" viewBox="0 0 23 20" fill="none" xmlns="http://www.w3.org/2000/svg">
<g filter="url(#filter0_d_401_126)">
<path d="M6.90778 5.00996C7.92419 4.59867 8.46792 3.46912 8.05502 2.44871C7.64332 1.43231 4.87944 -0.000183105 4.87944 -0.000183105C4.87944 -0.000183105 3.88741 2.95295 4.29884 3.96908C4.71188 4.98963 5.88843 5.42262 6.90778 5.00982V5.00996Z" fill="white"/>
<path d="M11.1647 11.0288C11.1647 11.0288 10.1444 13.9035 10.5557 14.9195C10.9685 15.9389 12.1422 16.3742 13.1617 15.9614C14.181 15.5488 14.7213 14.4196 14.3087 13.4003C13.8972 12.3839 11.1647 11.0287 11.1647 11.0287V11.0288Z" fill="white"/>
<path d="M4.78 9.87955C4.78 9.87955 3.66064 12.9759 4.10379 14.0706C4.54802 15.168 5.83747 15.6473 6.93502 15.2028C8.02962 14.7597 8.54271 13.5511 8.09833 12.4534C7.65488 11.359 4.78 9.87962 4.78 9.87962V9.87955Z" fill="white"/>
<path d="M11.1407 8.9415C11.7656 8.68851 12.0139 7.95177 11.7921 7.40399C11.5379 6.77601 9.93666 5.96759 9.93666 5.96759C9.93666 5.96759 9.34805 7.66261 9.60225 8.29086C9.82403 8.83837 10.5139 9.19528 11.1407 8.9415H11.1407Z" fill="white"/>
<path d="M17.2747 8.68125C17.0205 8.05327 15.4193 7.24484 15.4193 7.24484C15.4193 7.24484 14.8307 8.93986 15.0849 9.56812C15.3067 10.1158 15.9967 10.4727 16.6233 10.219C17.2483 9.96574 17.4968 9.229 17.2747 8.68121L17.2747 8.68125Z" fill="white"/>
<path d="M16.0525 2.63634C15.641 1.62008 12.877 0.187592 12.877 0.187592C12.877 0.187592 11.885 3.14071 12.2964 4.15684C12.7096 5.17738 13.8861 5.6101 14.9054 5.19747C15.9215 4.78632 16.4655 3.65702 16.0525 2.63624V2.63634Z" fill="white"/>
<path d="M18.8018 14.7413C18.5476 14.1133 16.9464 13.3049 16.9464 13.3049C16.9464 13.3049 16.3578 14.9999 16.612 15.6282C16.8338 16.1758 17.5236 16.5327 18.1504 16.2788C18.7752 16.0258 19.0236 15.2891 18.8018 14.7413H18.8018Z" fill="white"/>
</g>
<defs>
<filter id="filter0_d_401_126" x="0" y="-0.000183105" width="22.8816" height="24.3624" filterUnits="userSpaceOnUse" color-interpolation-filters="sRGB">
<feFlood flood-opacity="0" result="BackgroundImageFix"/>
<feColorMatrix in="SourceAlpha" type="matrix" values="0 0 0 0 0 0 0 0 0 0 0 0 0 0 0 0 0 0 127 0" result="hardAlpha"/>
<feOffset dy="4"/>
<feGaussianBlur stdDeviation="2"/>
<feComposite in2="hardAlpha" operator="out"/>
<feColorMatrix type="matrix" values="0 0 0 0 0 0 0 0 0 0 0 0 0 0 0 0 0 0 0.25 0"/>
<feBlend mode="normal" in2="BackgroundImageFix" result="effect1_dropShadow_401_126"/>
<feBlend mode="normal" in="SourceGraphic" in2="effect1_dropShadow_401_126" result="shape"/>
</filter>
</defs>
</svg>
